<svg xmlns="http://www.w3.org/2000/svg" xmlns:xlink="http://www.w3.org/1999/xlink" width="682" zoomAndPan="magnify" viewBox="0 0 511.5 250.499992" height="334" preserveAspectRatio="xMidYMid meet" version="1.0"><defs><g/></defs><g fill="#ffffff" fill-opacity="1"><g transform="translate(81.310814, 164.04633)"><g><path d="M 114.5 -76.6875 C 114.5 -73.457031 113.800781 -70.675781 112.40625 -68.34375 C 111.019531 -66.007812 109.25 -64.238281 107.09375 -63.03125 C 104.945312 -61.820312 102.796875 -61.21875 100.640625 -61.21875 C 98.484375 -61.21875 96.53125 -61.664062 94.78125 -62.5625 C 93.039062 -63.457031 91.585938 -64.671875 90.421875 -66.203125 L 57.984375 -11.578125 C 55.566406 -7.441406 53.328125 -4.476562 51.265625 -2.6875 C 49.203125 -0.894531 46.867188 0 44.265625 0 C 41.484375 0 39.257812 -0.914062 37.59375 -2.75 C 35.9375 -4.59375 34.753906 -7.535156 34.046875 -11.578125 L 22.734375 -73.734375 C 22.460938 -75.347656 21.96875 -76.644531 21.25 -77.625 C 20.539062 -78.613281 19.601562 -79.691406 18.4375 -80.859375 C 17.539062 -81.671875 16.910156 -82.320312 16.546875 -82.8125 C 16.191406 -83.300781 16.015625 -83.90625 16.015625 -84.625 C 15.566406 -87.945312 17.539062 -89.609375 21.9375 -89.609375 L 55.5625 -89.609375 C 57.625 -89.609375 59.191406 -89.179688 60.265625 -88.328125 C 61.347656 -87.472656 61.84375 -86.332031 61.75 -84.90625 C 61.75 -84.09375 61.59375 -83.414062 61.28125 -82.875 C 60.96875 -82.34375 60.453125 -81.671875 59.734375 -80.859375 C 58.929688 -79.960938 58.304688 -79.109375 57.859375 -78.296875 C 57.410156 -77.492188 57.1875 -76.507812 57.1875 -75.34375 C 57.1875 -74.800781 57.226562 -74.351562 57.3125 -74 L 62.4375 -42.65625 L 80.328125 -74.40625 C 83.460938 -80.144531 86.554688 -84.203125 89.609375 -86.578125 C 92.660156 -88.953125 96.425781 -90.140625 100.90625 -90.140625 C 105.03125 -90.140625 108.328125 -88.953125 110.796875 -86.578125 C 113.265625 -84.203125 114.5 -80.90625 114.5 -76.6875 Z M 114.5 -76.6875 "/></g></g></g><g fill="#ffffff" fill-opacity="1"><g transform="translate(172.262072, 164.04633)"><g><path d="M 52.0625 -71.171875 C 64.269531 -71.171875 73.265625 -68.703125 79.046875 -63.765625 C 84.828125 -58.835938 87.71875 -52.382812 87.71875 -44.40625 C 87.71875 -41.707031 87.359375 -38.703125 86.640625 -35.390625 C 84.941406 -28.035156 81.757812 -21.597656 77.09375 -16.078125 C 72.425781 -10.554688 66.707031 -6.296875 59.9375 -3.296875 C 53.164062 -0.296875 45.832031 1.203125 37.9375 1.203125 C 25.46875 1.203125 16.25 -1.28125 10.28125 -6.25 C 4.320312 -11.226562 1.34375 -17.847656 1.34375 -26.109375 C 1.34375 -28.878906 1.703125 -31.972656 2.421875 -35.390625 C 4.128906 -42.378906 7.378906 -48.585938 12.171875 -54.015625 C 16.972656 -59.441406 22.847656 -63.65625 29.796875 -66.65625 C 36.753906 -69.664062 44.175781 -71.171875 52.0625 -71.171875 Z M 51.671875 -59.203125 C 49.785156 -59.203125 47.785156 -57.519531 45.671875 -54.15625 C 43.566406 -50.789062 41.082031 -44.441406 38.21875 -35.109375 C 35.34375 -25.785156 33.90625 -19.238281 33.90625 -15.46875 C 33.90625 -13.5 34.21875 -12.175781 34.84375 -11.5 C 35.476562 -10.832031 36.332031 -10.5 37.40625 -10.5 C 39.289062 -10.3125 41.238281 -11.921875 43.25 -15.328125 C 45.269531 -18.742188 47.804688 -25.382812 50.859375 -35.25 C 53.640625 -43.945312 55.03125 -50.269531 55.03125 -54.21875 C 55.03125 -56.101562 54.738281 -57.40625 54.15625 -58.125 C 53.570312 -58.84375 52.742188 -59.203125 51.671875 -59.203125 Z M 51.671875 -59.203125 "/></g></g></g><g fill="#ffffff" fill-opacity="1"><g transform="translate(252.853452, 164.04633)"><g><path d="M 82.484375 -18.5625 C 82.296875 -18.207031 82.203125 -17.671875 82.203125 -16.953125 C 82.203125 -16.328125 82.359375 -15.832031 82.671875 -15.46875 C 82.992188 -15.113281 83.421875 -14.9375 83.953125 -14.9375 C 85.035156 -14.9375 85.957031 -15.40625 86.71875 -16.34375 C 87.476562 -17.289062 87.992188 -17.765625 88.265625 -17.765625 C 88.710938 -17.765625 89.070312 -17.472656 89.34375 -16.890625 C 89.613281 -16.304688 89.75 -15.609375 89.75 -14.796875 C 89.832031 -12.191406 88.976562 -9.65625 87.1875 -7.1875 C 85.394531 -4.726562 82.769531 -2.710938 79.3125 -1.140625 C 75.863281 0.421875 71.71875 1.203125 66.875 1.203125 C 60.945312 1.203125 56.234375 -0.160156 52.734375 -2.890625 C 49.242188 -5.628906 47.453125 -9.285156 47.359375 -13.859375 C 47.359375 -17.179688 48.164062 -20.90625 49.78125 -25.03125 L 57.1875 -44.40625 C 57.632812 -45.570312 57.859375 -46.507812 57.859375 -47.21875 C 57.859375 -48.382812 57.472656 -49.304688 56.703125 -49.984375 C 55.941406 -50.660156 55.023438 -51 53.953125 -51 C 52.242188 -51 50.515625 -50.210938 48.765625 -48.640625 C 47.023438 -47.066406 45.613281 -44.53125 44.53125 -41.03125 L 44.53125 -41.3125 L 36.0625 -14 C 35.789062 -12.914062 35.65625 -11.972656 35.65625 -11.171875 C 35.65625 -10.003906 35.878906 -9.082031 36.328125 -8.40625 C 36.773438 -7.738281 37.40625 -7.085938 38.21875 -6.453125 C 38.84375 -5.828125 39.285156 -5.3125 39.546875 -4.90625 C 39.816406 -4.507812 39.863281 -3.992188 39.6875 -3.359375 C 39.238281 -2.191406 38.34375 -1.335938 37 -0.796875 C 35.65625 -0.265625 33.59375 0 30.8125 0 L 0.140625 0 C -2.191406 0 -3.894531 -0.378906 -4.96875 -1.140625 C -6.050781 -1.898438 -6.410156 -2.910156 -6.046875 -4.171875 C -5.691406 -5.242188 -4.753906 -6.1875 -3.234375 -7 C -1.878906 -7.71875 -0.753906 -8.566406 0.140625 -9.546875 C 1.035156 -10.535156 1.796875 -12.109375 2.421875 -14.265625 L 22.875 -81.40625 C 23.144531 -82.207031 23.28125 -82.878906 23.28125 -83.421875 C 23.28125 -84.410156 23.03125 -85.21875 22.53125 -85.84375 C 22.039062 -86.46875 21.390625 -87.09375 20.578125 -87.71875 C 19.679688 -88.4375 19.03125 -89.066406 18.625 -89.609375 C 18.226562 -90.148438 18.164062 -90.867188 18.4375 -91.765625 C 18.96875 -93.828125 21.789062 -95.617188 26.90625 -97.140625 C 32.019531 -98.671875 37.359375 -99.4375 42.921875 -99.4375 C 48.117188 -99.4375 51.953125 -98.445312 54.421875 -96.46875 C 56.890625 -94.5 58.125 -91.804688 58.125 -88.390625 C 58.125 -86.421875 57.8125 -84.492188 57.1875 -82.609375 L 49.921875 -58.9375 C 53.421875 -63.507812 57.117188 -66.691406 61.015625 -68.484375 C 64.921875 -70.273438 69.160156 -71.171875 73.734375 -71.171875 C 79.203125 -71.171875 83.617188 -69.507812 86.984375 -66.1875 C 90.347656 -62.875 92.03125 -58.570312 92.03125 -53.28125 C 92.03125 -50.5 91.582031 -47.765625 90.6875 -45.078125 Z M 82.484375 -18.5625 "/></g></g></g><g fill="#ffffff" fill-opacity="1"><g transform="translate(340.710191, 164.04633)"><g><path d="M 52.0625 -71.171875 C 64.269531 -71.171875 73.265625 -68.703125 79.046875 -63.765625 C 84.828125 -58.835938 87.71875 -52.382812 87.71875 -44.40625 C 87.71875 -41.707031 87.359375 -38.703125 86.640625 -35.390625 C 84.941406 -28.035156 81.757812 -21.597656 77.09375 -16.078125 C 72.425781 -10.554688 66.707031 -6.296875 59.9375 -3.296875 C 53.164062 -0.296875 45.832031 1.203125 37.9375 1.203125 C 25.46875 1.203125 16.25 -1.28125 10.28125 -6.25 C 4.320312 -11.226562 1.34375 -17.847656 1.34375 -26.109375 C 1.34375 -28.878906 1.703125 -31.972656 2.421875 -35.390625 C 4.128906 -42.378906 7.378906 -48.585938 12.171875 -54.015625 C 16.972656 -59.441406 22.847656 -63.65625 29.796875 -66.65625 C 36.753906 -69.664062 44.175781 -71.171875 52.0625 -71.171875 Z M 51.671875 -59.203125 C 49.785156 -59.203125 47.785156 -57.519531 45.671875 -54.15625 C 43.566406 -50.789062 41.082031 -44.441406 38.21875 -35.109375 C 35.34375 -25.785156 33.90625 -19.238281 33.90625 -15.46875 C 33.90625 -13.5 34.21875 -12.175781 34.84375 -11.5 C 35.476562 -10.832031 36.332031 -10.5 37.40625 -10.5 C 39.289062 -10.3125 41.238281 -11.921875 43.25 -15.328125 C 45.269531 -18.742188 47.804688 -25.382812 50.859375 -35.25 C 53.640625 -43.945312 55.03125 -50.269531 55.03125 -54.21875 C 55.03125 -56.101562 54.738281 -57.40625 54.15625 -58.125 C 53.570312 -58.84375 52.742188 -59.203125 51.671875 -59.203125 Z M 51.671875 -59.203125 "/></g></g></g></svg>